<svg width="126" height="33" viewBox="0 0 126 33" fill="none" xmlns="http://www.w3.org/2000/svg">
<g clip-path="url(#clip0_38_798)">
<path d="M19.1528 3.77538C18.3929 4.10393 17.6086 4.35626 16.9097 4.76006C13.8321 6.53842 10.7976 8.39449 7.70745 10.1502C6.47367 10.8511 5.95916 11.8058 5.99113 13.2097C6.04069 15.3883 6.04136 17.5699 5.99087 19.7487C5.95823 21.1551 6.46901 22.1237 7.71411 22.8034C9.65158 23.861 11.5554 24.9862 13.4358 26.1454C14.5786 26.8499 15.6202 26.8645 16.769 26.1562C18.7143 24.9571 20.692 23.8093 22.6835 22.69C23.755 22.0878 24.2347 21.2235 24.2242 20.002C24.2044 17.6429 24.219 15.2834 24.219 12.924C24.219 11.8583 23.9302 10.9593 22.9066 10.434C22.176 10.059 21.4417 9.97929 20.7268 10.3907C18.3947 11.7328 16.0453 13.0486 13.7649 14.4767C12.2033 15.4548 12.2772 17.151 13.8347 18.1372C14.3643 18.4726 14.9346 18.7418 15.5341 19.0672C15.0271 17.2898 15.3233 16.6122 16.9152 15.697C18.1039 15.0138 19.278 14.3051 20.464 13.6171C20.7392 13.4573 21.036 13.3349 21.4309 13.1429C21.4726 13.4983 21.5244 13.7371 21.5251 13.9762C21.5298 15.6689 21.507 17.3618 21.5288 19.0542C21.5392 19.8582 21.2298 20.4197 20.5418 20.8142C19.0662 21.6604 17.5971 22.5188 16.1373 23.3923C15.4304 23.8154 14.7635 23.7987 14.0628 23.3802C12.6239 22.5211 11.1779 21.6736 9.723 20.8425C9.01108 20.4359 8.67985 19.8652 8.69361 19.027C8.72211 17.3091 8.71969 15.5902 8.69615 13.8721C8.68506 13.0616 9.0253 12.5213 9.70343 12.1234C12.967 10.2092 16.2321 8.29721 19.4763 6.34948C20.8598 5.51883 22.1838 5.50278 23.551 6.35501C24.4557 6.919 25.3893 7.43584 26.3131 7.968C27.4259 8.60906 27.9905 9.58916 27.9957 10.8696C28.0106 14.6136 28.0124 18.3579 27.9966 22.102C27.9913 23.35 27.4432 24.321 26.362 24.9544C23.1638 26.8286 19.9657 28.7028 16.7635 30.5701C15.66 31.2136 14.5422 31.2026 13.4413 30.5607C10.2614 28.7059 7.08639 26.8421 3.90737 24.9855C2.77043 24.3214 2.22261 23.3114 2.21942 22.0036C2.21022 18.3106 2.20942 14.6177 2.22088 10.9247C2.22487 9.61463 2.79268 8.61434 3.92655 7.95276C7.08424 6.11008 10.2399 4.26361 13.3956 2.4174C14.551 1.74131 15.7005 1.74792 16.8518 2.42955C17.6492 2.90158 18.4511 3.36525 19.1528 3.77538Z" fill="#212121"/>
<path d="M15.0045 0.868963C14.423 0.868963 13.8412 1.02109 13.3213 1.32522L12.6635 1.71C9.39732 3.62081 6.13117 5.53161 2.8629 7.43879C1.74408 8.09167 1.19813 9.04246 1.19413 10.346C1.18227 14.2256 1.18175 18.2273 1.1924 22.5795C1.19573 23.8963 1.73516 24.8507 2.84199 25.4972C4.39405 26.4036 5.94518 27.3117 7.49656 28.2198C9.45432 29.3656 11.4118 30.5115 13.3712 31.6544C14.6122 32.3784 15.8132 32.2885 17.0425 31.3802C19.9593 29.2251 23.1097 27.5143 26.9423 25.6087C28.1711 24.9979 28.7971 24.0148 28.8029 22.687C28.8197 18.7279 28.8194 14.6713 28.8018 10.2854C28.7968 9.0154 28.2599 8.09021 27.1605 7.45688C26.919 7.31755 26.6767 7.17928 26.4347 7.04095C26.0604 6.82691 25.6862 6.613 25.3139 6.39611L24.7623 6.07189C24.5381 5.93784 24.3167 5.80459 24.0973 5.66783C23.9796 5.59446 23.8511 5.52285 23.7041 5.4484L23.6804 5.43545L18.506 2.39162C17.9266 2.05432 17.3115 1.69543 16.6985 1.33251C16.1769 1.02352 15.5908 0.868963 15.0045 0.868963ZM15.0022 33C14.312 33 13.6203 32.803 12.9425 32.4076C10.9828 31.2645 9.0248 30.1183 7.06665 28.9723C5.51566 28.0644 3.9648 27.1564 2.41287 26.2501C1.0372 25.4466 0.337767 24.2123 0.33377 22.5814C0.323112 18.2278 0.323645 14.2245 0.335502 10.3431C0.340432 8.72579 1.04652 7.49542 2.43419 6.68567C5.70218 4.77878 8.96793 2.86798 12.2338 0.957304L12.8916 0.572659C14.2023 -0.194334 15.8272 -0.190557 17.132 0.5821C17.7519 0.949074 18.3745 1.3116 18.9595 1.65228L20.4221 2.50613L20.4151 2.50922L24.1005 4.67709C24.2653 4.76084 24.4115 4.84297 24.5476 4.92767C24.7622 5.0616 24.9789 5.19202 25.1962 5.32176L25.7434 5.64355C26.1123 5.85826 26.4847 6.07108 26.8569 6.28391C27.0999 6.42282 27.3427 6.56173 27.5853 6.70131C28.9367 7.48004 29.6542 8.71801 29.6604 10.2818C29.6782 14.6703 29.6784 18.7292 29.6617 22.691C29.6544 24.3525 28.8451 25.6312 27.3209 26.389C23.5284 28.2745 20.4153 29.9641 17.5488 32.0823C16.7216 32.6934 15.8629 33 15.0022 33Z" fill="#E64A19"/>
</g>
<path d="M40.776 15.584H45.304V21.504C44.7067 21.7067 44.0827 21.8667 43.432 21.984C42.792 22.1013 42.0613 22.16 41.24 22.16C40.1093 22.16 39.144 21.936 38.344 21.488C37.5547 21.04 36.952 20.3787 36.536 19.504C36.1307 18.6293 35.928 17.552 35.928 16.272C35.928 15.0773 36.1573 14.0427 36.616 13.168C37.0853 12.2933 37.7627 11.616 38.648 11.136C39.5333 10.656 40.616 10.416 41.896 10.416C42.504 10.416 43.1013 10.48 43.688 10.608C44.2747 10.736 44.808 10.9067 45.288 11.12L44.488 13.056C44.136 12.8747 43.736 12.7253 43.288 12.608C42.84 12.4907 42.3707 12.432 41.88 12.432C41.176 12.432 40.5627 12.592 40.04 12.912C39.528 13.232 39.128 13.6853 38.84 14.272C38.5627 14.848 38.424 15.5307 38.424 16.32C38.424 17.0667 38.5253 17.728 38.728 18.304C38.9307 18.88 39.2507 19.3333 39.688 19.664C40.1253 19.984 40.696 20.144 41.4 20.144C41.6347 20.144 41.8373 20.1387 42.008 20.128C42.1893 20.1067 42.3547 20.0853 42.504 20.064C42.6533 20.032 42.7973 20.0053 42.936 19.984V17.6H40.776V15.584ZM52.2901 22H47.0901V20.624L48.4821 19.984V12.592L47.0901 11.952V10.576H52.2901V11.952L50.8981 12.592V19.984L52.2901 20.624V22ZM63.7089 16.176C63.7089 17.456 63.4635 18.528 62.9729 19.392C62.4822 20.256 61.7675 20.9067 60.8289 21.344C59.9009 21.7813 58.7809 22 57.4689 22H54.2369V10.576H57.8209C59.0155 10.576 60.0502 10.7893 60.9249 11.216C61.8102 11.6427 62.4929 12.272 62.9729 13.104C63.4635 13.9253 63.7089 14.9493 63.7089 16.176ZM61.1969 16.24C61.1969 15.3973 61.0742 14.704 60.8289 14.16C60.5835 13.616 60.2155 13.216 59.7249 12.96C59.2449 12.6933 58.6529 12.56 57.9489 12.56H56.6529V20H57.6929C58.8769 20 59.7569 19.6853 60.3329 19.056C60.9089 18.4267 61.1969 17.488 61.1969 16.24ZM80.3009 13.104C81.2929 13.104 82.0395 13.36 82.5409 13.872C83.0529 14.3733 83.3089 15.184 83.3089 16.304V22H80.9249V16.896C80.9249 16.2667 80.8182 15.7973 80.6049 15.488C80.3915 15.168 80.0609 15.008 79.6129 15.008C78.9835 15.008 78.5355 15.232 78.2689 15.68C78.0022 16.128 77.8689 16.7733 77.8689 17.616V22H75.4849V16.896C75.4849 16.48 75.4369 16.1333 75.3409 15.856C75.2449 15.5787 75.1009 15.3707 74.9089 15.232C74.7169 15.0827 74.4715 15.008 74.1729 15.008C73.7355 15.008 73.3889 15.12 73.1329 15.344C72.8769 15.568 72.6955 15.8933 72.5889 16.32C72.4822 16.7467 72.4289 17.2693 72.4289 17.888V22H70.0449V13.264H71.8689L72.1889 14.384H72.3169C72.4982 14.0853 72.7222 13.8453 72.9889 13.664C73.2555 13.472 73.5489 13.3333 73.8689 13.248C74.1995 13.152 74.5302 13.104 74.8609 13.104C75.5009 13.104 76.0449 13.2107 76.4929 13.424C76.9409 13.6267 77.2822 13.9467 77.5169 14.384H77.7249C77.9915 13.936 78.3595 13.6107 78.8289 13.408C79.3089 13.2053 79.7995 13.104 80.3009 13.104ZM89.3476 13.088C90.521 13.088 91.417 13.344 92.0356 13.856C92.665 14.3573 92.9796 15.1307 92.9796 16.176V22H91.3156L90.8516 20.816H90.7876C90.5423 21.1253 90.2863 21.3813 90.0196 21.584C89.7636 21.7867 89.465 21.9307 89.1236 22.016C88.793 22.112 88.3823 22.16 87.8916 22.16C87.3796 22.16 86.9156 22.064 86.4996 21.872C86.0943 21.6693 85.7743 21.3653 85.5396 20.96C85.305 20.544 85.1876 20.0213 85.1876 19.392C85.1876 18.464 85.513 17.7813 86.1636 17.344C86.8143 16.896 87.7903 16.6507 89.0916 16.608L90.6116 16.56V16.176C90.6116 15.7173 90.489 15.3813 90.2436 15.168C90.009 14.9547 89.6783 14.848 89.2516 14.848C88.825 14.848 88.409 14.912 88.0036 15.04C87.5983 15.1573 87.193 15.3067 86.7876 15.488L86.0036 13.872C86.473 13.6267 86.9903 13.4347 87.5556 13.296C88.1316 13.1573 88.729 13.088 89.3476 13.088ZM89.6836 17.984C88.9156 18.0053 88.3823 18.144 88.0836 18.4C87.785 18.656 87.6356 18.992 87.6356 19.408C87.6356 19.7707 87.7423 20.032 87.9556 20.192C88.169 20.3413 88.4463 20.416 88.7876 20.416C89.2996 20.416 89.7316 20.2667 90.0836 19.968C90.4356 19.6587 90.6116 19.2267 90.6116 18.672V17.952L89.6836 17.984ZM101.516 19.408C101.516 19.9947 101.377 20.496 101.1 20.912C100.823 21.3173 100.407 21.6267 99.8519 21.84C99.2972 22.0533 98.6092 22.16 97.7879 22.16C97.1799 22.16 96.6572 22.1173 96.2199 22.032C95.7825 21.9573 95.3452 21.8293 94.9079 21.648V19.68C95.3772 19.8933 95.8839 20.0693 96.4279 20.208C96.9719 20.3467 97.4519 20.416 97.8679 20.416C98.3372 20.416 98.6679 20.3467 98.8599 20.208C99.0625 20.0693 99.1639 19.888 99.1639 19.664C99.1639 19.5147 99.1212 19.3813 99.0359 19.264C98.9612 19.1467 98.7905 19.0133 98.5239 18.864C98.2572 18.7147 97.8412 18.5227 97.2759 18.288C96.7319 18.0533 96.2839 17.824 95.9319 17.6C95.5799 17.3653 95.3185 17.088 95.1479 16.768C94.9772 16.4373 94.8919 16.0267 94.8919 15.536C94.8919 14.7253 95.2065 14.1173 95.8359 13.712C96.4652 13.3067 97.3025 13.104 98.3479 13.104C98.8919 13.104 99.4092 13.1573 99.8999 13.264C100.391 13.3707 100.897 13.5467 101.42 13.792L100.7 15.504C100.412 15.376 100.135 15.264 99.8679 15.168C99.6012 15.072 99.3399 14.9973 99.0839 14.944C98.8385 14.8907 98.5825 14.864 98.3159 14.864C97.9639 14.864 97.6972 14.912 97.5159 15.008C97.3452 15.104 97.2599 15.248 97.2599 15.44C97.2599 15.5787 97.3025 15.7067 97.3879 15.824C97.4839 15.9307 97.6599 16.048 97.9159 16.176C98.1825 16.304 98.5719 16.4747 99.0839 16.688C99.5852 16.8907 100.017 17.104 100.38 17.328C100.743 17.5413 101.02 17.8133 101.212 18.144C101.415 18.464 101.516 18.8853 101.516 19.408ZM107.053 20.256C107.32 20.256 107.576 20.2293 107.821 20.176C108.066 20.1227 108.312 20.0587 108.557 19.984V21.76C108.301 21.8667 107.981 21.9573 107.597 22.032C107.224 22.1173 106.813 22.16 106.365 22.16C105.842 22.16 105.373 22.0747 104.957 21.904C104.552 21.7333 104.226 21.44 103.981 21.024C103.746 20.5973 103.629 20.0107 103.629 19.264V15.056H102.493V14.048L103.805 13.248L104.493 11.408H106.013V13.264H108.461V15.056H106.013V19.264C106.013 19.5947 106.109 19.8453 106.301 20.016C106.493 20.176 106.744 20.256 107.053 20.256ZM113.911 13.104C114.721 13.104 115.415 13.2587 115.991 13.568C116.577 13.8773 117.031 14.3253 117.351 14.912C117.671 15.4987 117.831 16.2187 117.831 17.072V18.224H112.199C112.22 18.896 112.417 19.424 112.791 19.808C113.175 20.192 113.703 20.384 114.375 20.384C114.94 20.384 115.452 20.3307 115.911 20.224C116.369 20.1067 116.844 19.9307 117.335 19.696V21.536C116.908 21.7493 116.455 21.904 115.975 22C115.505 22.1067 114.935 22.16 114.263 22.16C113.388 22.16 112.615 22 111.943 21.68C111.271 21.3493 110.743 20.8533 110.359 20.192C109.975 19.5307 109.783 18.6987 109.783 17.696C109.783 16.672 109.953 15.824 110.295 15.152C110.647 14.4693 111.132 13.9573 111.751 13.616C112.369 13.2747 113.089 13.104 113.911 13.104ZM113.927 14.8C113.468 14.8 113.084 14.9493 112.775 15.248C112.476 15.5467 112.3 16.0107 112.247 16.64H115.591C115.591 16.288 115.527 15.9733 115.399 15.696C115.281 15.4187 115.1 15.2 114.855 15.04C114.609 14.88 114.3 14.8 113.927 14.8ZM124.644 13.104C124.761 13.104 124.9 13.1093 125.06 13.12C125.22 13.1307 125.348 13.1467 125.444 13.168L125.268 15.408C125.193 15.3867 125.081 15.3707 124.932 15.36C124.793 15.3387 124.67 15.328 124.564 15.328C124.254 15.328 123.956 15.3707 123.668 15.456C123.38 15.5307 123.118 15.6533 122.884 15.824C122.66 15.9947 122.478 16.224 122.34 16.512C122.212 16.7893 122.148 17.136 122.148 17.552V22H119.764V13.264H121.572L121.924 14.736H122.036C122.206 14.4373 122.42 14.1653 122.676 13.92C122.932 13.6747 123.225 13.4773 123.556 13.328C123.897 13.1787 124.26 13.104 124.644 13.104Z" fill="#212121"/>
<defs>
<clipPath id="clip0_38_798">
<rect width="30" height="33" fill="white"/>
</clipPath>
</defs>
</svg>
